<svg width="289" height="57" viewBox="0 0 289 57" fill="none" xmlns="http://www.w3.org/2000/svg">
<path d="M5.9018 12.964H9.31781V14H4.6278V4.242H5.9018V12.964ZM14.0168 14.126C13.2981 14.126 12.6448 13.9627 12.0568 13.636C11.4781 13.3093 11.0208 12.8473 10.6848 12.25C10.3581 11.6433 10.1948 10.9433 10.1948 10.15C10.1948 9.366 10.3628 8.67533 10.6988 8.078C11.0441 7.47133 11.5108 7.00933 12.0988 6.692C12.6868 6.36533 13.3448 6.202 14.0728 6.202C14.8008 6.202 15.4588 6.36533 16.0468 6.692C16.6348 7.00933 17.0968 7.46667 17.4328 8.064C17.7781 8.66133 17.9508 9.35667 17.9508 10.15C17.9508 10.9433 17.7734 11.6433 17.4188 12.25C17.0734 12.8473 16.6021 13.3093 16.0048 13.636C15.4074 13.9627 14.7448 14.126 14.0168 14.126ZM14.0168 13.006C14.4741 13.006 14.9034 12.8987 15.3048 12.684C15.7061 12.4693 16.0281 12.1473 16.2708 11.718C16.5228 11.2887 16.6488 10.766 16.6488 10.15C16.6488 9.534 16.5274 9.01133 16.2848 8.582C16.0421 8.15267 15.7248 7.83533 15.3328 7.63C14.9408 7.41533 14.5161 7.308 14.0588 7.308C13.5921 7.308 13.1628 7.41533 12.7708 7.63C12.3881 7.83533 12.0801 8.15267 11.8468 8.582C11.6134 9.01133 11.4968 9.534 11.4968 10.15C11.4968 10.7753 11.6088 11.3027 11.8328 11.732C12.0661 12.1613 12.3741 12.4833 12.7568 12.698C13.1394 12.9033 13.5594 13.006 14.0168 13.006ZM20.8999 7.574C21.1239 7.13533 21.4412 6.79467 21.8519 6.552C22.2719 6.30933 22.7805 6.188 23.3779 6.188V7.504H23.0419C21.6139 7.504 20.8999 8.27867 20.8999 9.828V14H19.6259V6.328H20.8999V7.574ZM31.8485 9.87C31.8485 10.1127 31.8345 10.3693 31.8065 10.64H25.6745C25.7212 11.396 25.9778 11.9887 26.4445 12.418C26.9205 12.838 27.4945 13.048 28.1665 13.048C28.7172 13.048 29.1745 12.922 29.5385 12.67C29.9118 12.4087 30.1732 12.0633 30.3225 11.634H31.6945C31.4892 12.3713 31.0785 12.9733 30.4625 13.44C29.8465 13.8973 29.0812 14.126 28.1665 14.126C27.4385 14.126 26.7852 13.9627 26.2065 13.636C25.6372 13.3093 25.1892 12.8473 24.8625 12.25C24.5358 11.6433 24.3725 10.9433 24.3725 10.15C24.3725 9.35667 24.5312 8.66133 24.8485 8.064C25.1658 7.46667 25.6092 7.00933 26.1785 6.692C26.7572 6.36533 27.4198 6.202 28.1665 6.202C28.8945 6.202 29.5385 6.36067 30.0985 6.678C30.6585 6.99533 31.0878 7.434 31.3865 7.994C31.6945 8.54467 31.8485 9.17 31.8485 9.87ZM30.5325 9.604C30.5325 9.11867 30.4252 8.70333 30.2105 8.358C29.9958 8.00333 29.7018 7.73733 29.3285 7.56C28.9645 7.37333 28.5585 7.28 28.1105 7.28C27.4665 7.28 26.9158 7.48533 26.4585 7.896C26.0105 8.30667 25.7538 8.876 25.6885 9.604H30.5325ZM42.7561 6.188C43.3535 6.188 43.8855 6.314 44.3521 6.566C44.8188 6.80867 45.1875 7.17733 45.4581 7.672C45.7288 8.16667 45.8641 8.76867 45.8641 9.478V14H44.6041V9.66C44.6041 8.89467 44.4128 8.31133 44.0301 7.91C43.6568 7.49933 43.1481 7.294 42.5041 7.294C41.8415 7.294 41.3141 7.50867 40.9221 7.938C40.5301 8.358 40.3341 8.96933 40.3341 9.772V14H39.0741V9.66C39.0741 8.89467 38.8828 8.31133 38.5001 7.91C38.1268 7.49933 37.6181 7.294 36.9741 7.294C36.3115 7.294 35.7841 7.50867 35.3921 7.938C35.0001 8.358 34.8041 8.96933 34.8041 9.772V14H33.5301V6.328H34.8041V7.434C35.0561 7.03267 35.3921 6.72467 35.8121 6.51C36.2415 6.29533 36.7128 6.188 37.2261 6.188C37.8701 6.188 38.4395 6.33267 38.9341 6.622C39.4288 6.91133 39.7975 7.336 40.0401 7.896C40.2548 7.35467 40.6095 6.93467 41.1041 6.636C41.5988 6.33733 42.1495 6.188 42.7561 6.188ZM52.3444 5.082C52.1017 5.082 51.8964 4.998 51.7284 4.83C51.5604 4.662 51.4764 4.45667 51.4764 4.214C51.4764 3.97133 51.5604 3.766 51.7284 3.598C51.8964 3.43 52.1017 3.346 52.3444 3.346C52.5777 3.346 52.7737 3.43 52.9324 3.598C53.1004 3.766 53.1844 3.97133 53.1844 4.214C53.1844 4.45667 53.1004 4.662 52.9324 4.83C52.7737 4.998 52.5777 5.082 52.3444 5.082ZM52.9604 6.328V14H51.6864V6.328H52.9604ZM56.4057 7.742C56.6577 7.30333 57.031 6.93933 57.5257 6.65C58.0297 6.35133 58.613 6.202 59.2757 6.202C59.957 6.202 60.573 6.36533 61.1237 6.692C61.6837 7.01867 62.1224 7.48067 62.4397 8.078C62.757 8.666 62.9157 9.352 62.9157 10.136C62.9157 10.9107 62.757 11.6013 62.4397 12.208C62.1224 12.8147 61.6837 13.286 61.1237 13.622C60.573 13.958 59.957 14.126 59.2757 14.126C58.6224 14.126 58.0437 13.9813 57.5397 13.692C57.045 13.3933 56.667 13.0247 56.4057 12.586V17.64H55.1317V6.328H56.4057V7.742ZM61.6137 10.136C61.6137 9.55733 61.497 9.05333 61.2637 8.624C61.0304 8.19467 60.713 7.868 60.3117 7.644C59.9197 7.42 59.4857 7.308 59.0097 7.308C58.543 7.308 58.109 7.42467 57.7077 7.658C57.3157 7.882 56.9984 8.21333 56.7557 8.652C56.5224 9.08133 56.4057 9.58067 56.4057 10.15C56.4057 10.7287 56.5224 11.2373 56.7557 11.676C56.9984 12.1053 57.3157 12.4367 57.7077 12.67C58.109 12.894 58.543 13.006 59.0097 13.006C59.4857 13.006 59.9197 12.894 60.3117 12.67C60.713 12.4367 61.0304 12.1053 61.2637 11.676C61.497 11.2373 61.6137 10.724 61.6137 10.136ZM67.3086 14.126C66.7206 14.126 66.1933 14.028 65.7266 13.832C65.26 13.6267 64.8913 13.3467 64.6206 12.992C64.35 12.628 64.2006 12.2127 64.1726 11.746H65.4886C65.526 12.1287 65.7033 12.4413 66.0206 12.684C66.3473 12.9267 66.772 13.048 67.2946 13.048C67.78 13.048 68.1626 12.9407 68.4426 12.726C68.7226 12.5113 68.8626 12.2407 68.8626 11.914C68.8626 11.578 68.7133 11.3307 68.4146 11.172C68.116 11.004 67.654 10.8407 67.0286 10.682C66.4593 10.5327 65.9926 10.3833 65.6286 10.234C65.274 10.0753 64.966 9.84667 64.7046 9.548C64.4526 9.24 64.3266 8.83867 64.3266 8.344C64.3266 7.952 64.4433 7.59267 64.6766 7.266C64.91 6.93933 65.2413 6.68267 65.6706 6.496C66.1 6.3 66.59 6.202 67.1406 6.202C67.99 6.202 68.676 6.41667 69.1986 6.846C69.7213 7.27533 70.0013 7.86333 70.0386 8.61H68.7646C68.7366 8.20867 68.5733 7.88667 68.2746 7.644C67.9853 7.40133 67.5933 7.28 67.0986 7.28C66.6413 7.28 66.2773 7.378 66.0066 7.574C65.736 7.77 65.6006 8.02667 65.6006 8.344C65.6006 8.596 65.68 8.806 65.8386 8.974C66.0066 9.13267 66.212 9.26333 66.4546 9.366C66.7066 9.45933 67.052 9.56667 67.4906 9.688C68.0413 9.83733 68.4893 9.98667 68.8346 10.136C69.18 10.276 69.474 10.4907 69.7166 10.78C69.9686 11.0693 70.0993 11.4473 70.1086 11.914C70.1086 12.334 69.992 12.712 69.7586 13.048C69.5253 13.384 69.194 13.65 68.7646 13.846C68.3446 14.0327 67.8593 14.126 67.3086 14.126ZM78.7111 6.328V14H77.4371V12.866C77.1944 13.258 76.8538 13.566 76.4151 13.79C75.9858 14.0047 75.5098 14.112 74.9871 14.112C74.3898 14.112 73.8531 13.9907 73.3771 13.748C72.9011 13.496 72.5231 13.1227 72.2431 12.628C71.9724 12.1333 71.8371 11.5313 71.8371 10.822V6.328H73.0971V10.654C73.0971 11.41 73.2884 11.9933 73.6711 12.404C74.0538 12.8053 74.5764 13.006 75.2391 13.006C75.9204 13.006 76.4571 12.796 76.8491 12.376C77.2411 11.956 77.4371 11.3447 77.4371 10.542V6.328H78.7111ZM90.0882 6.188C90.6855 6.188 91.2175 6.314 91.6842 6.566C92.1508 6.80867 92.5195 7.17733 92.7902 7.672C93.0608 8.16667 93.1962 8.76867 93.1962 9.478V14H91.9362V9.66C91.9362 8.89467 91.7448 8.31133 91.3622 7.91C90.9888 7.49933 90.4802 7.294 89.8362 7.294C89.1735 7.294 88.6462 7.50867 88.2542 7.938C87.8622 8.358 87.6662 8.96933 87.6662 9.772V14H86.4062V9.66C86.4062 8.89467 86.2148 8.31133 85.8322 7.91C85.4588 7.49933 84.9502 7.294 84.3062 7.294C83.6435 7.294 83.1162 7.50867 82.7242 7.938C82.3322 8.358 82.1362 8.96933 82.1362 9.772V14H80.8622V6.328H82.1362V7.434C82.3882 7.03267 82.7242 6.72467 83.1442 6.51C83.5735 6.29533 84.0448 6.188 84.5582 6.188C85.2022 6.188 85.7715 6.33267 86.2662 6.622C86.7608 6.91133 87.1295 7.336 87.3722 7.896C87.5868 7.35467 87.9415 6.93467 88.4362 6.636C88.9308 6.33733 89.4815 6.188 90.0882 6.188ZM98.5424 10.136C98.5424 9.352 98.7011 8.666 99.0184 8.078C99.3358 7.48067 99.7698 7.01867 100.32 6.692C100.88 6.36533 101.506 6.202 102.196 6.202C102.794 6.202 103.349 6.342 103.862 6.622C104.376 6.89267 104.768 7.252 105.038 7.7V3.64H106.326V14H105.038V12.558C104.786 13.0153 104.413 13.3933 103.918 13.692C103.424 13.9813 102.845 14.126 102.182 14.126C101.501 14.126 100.88 13.958 100.32 13.622C99.7698 13.286 99.3358 12.8147 99.0184 12.208C98.7011 11.6013 98.5424 10.9107 98.5424 10.136ZM105.038 10.15C105.038 9.57133 104.922 9.06733 104.688 8.638C104.455 8.20867 104.138 7.882 103.736 7.658C103.344 7.42467 102.91 7.308 102.434 7.308C101.958 7.308 101.524 7.42 101.132 7.644C100.74 7.868 100.428 8.19467 100.194 8.624C99.9611 9.05333 99.8444 9.55733 99.8444 10.136C99.8444 10.724 99.9611 11.2373 100.194 11.676C100.428 12.1053 100.74 12.4367 101.132 12.67C101.524 12.894 101.958 13.006 102.434 13.006C102.91 13.006 103.344 12.894 103.736 12.67C104.138 12.4367 104.455 12.1053 104.688 11.676C104.922 11.2373 105.038 10.7287 105.038 10.15ZM111.825 14.126C111.107 14.126 110.453 13.9627 109.865 13.636C109.287 13.3093 108.829 12.8473 108.493 12.25C108.167 11.6433 108.003 10.9433 108.003 10.15C108.003 9.366 108.171 8.67533 108.507 8.078C108.853 7.47133 109.319 7.00933 109.907 6.692C110.495 6.36533 111.153 6.202 111.881 6.202C112.609 6.202 113.267 6.36533 113.855 6.692C114.443 7.00933 114.905 7.46667 115.241 8.064C115.587 8.66133 115.759 9.35667 115.759 10.15C115.759 10.9433 115.582 11.6433 115.227 12.25C114.882 12.8473 114.411 13.3093 113.813 13.636C113.216 13.9627 112.553 14.126 111.825 14.126ZM111.825 13.006C112.283 13.006 112.712 12.8987 113.113 12.684C113.515 12.4693 113.837 12.1473 114.079 11.718C114.331 11.2887 114.457 10.766 114.457 10.15C114.457 9.534 114.336 9.01133 114.093 8.582C113.851 8.15267 113.533 7.83533 113.141 7.63C112.749 7.41533 112.325 7.308 111.867 7.308C111.401 7.308 110.971 7.41533 110.579 7.63C110.197 7.83533 109.889 8.15267 109.655 8.582C109.422 9.01133 109.305 9.534 109.305 10.15C109.305 10.7753 109.417 11.3027 109.641 11.732C109.875 12.1613 110.183 12.4833 110.565 12.698C110.948 12.9033 111.368 13.006 111.825 13.006ZM118.708 3.64V14H117.434V3.64H118.708ZM124.226 14.126C123.507 14.126 122.854 13.9627 122.266 13.636C121.687 13.3093 121.23 12.8473 120.894 12.25C120.567 11.6433 120.404 10.9433 120.404 10.15C120.404 9.366 120.572 8.67533 120.908 8.078C121.253 7.47133 121.72 7.00933 122.308 6.692C122.896 6.36533 123.554 6.202 124.282 6.202C125.01 6.202 125.668 6.36533 126.256 6.692C126.844 7.00933 127.306 7.46667 127.642 8.064C127.987 8.66133 128.16 9.35667 128.16 10.15C128.16 10.9433 127.982 11.6433 127.628 12.25C127.282 12.8473 126.811 13.3093 126.214 13.636C125.616 13.9627 124.954 14.126 124.226 14.126ZM124.226 13.006C124.683 13.006 125.112 12.8987 125.514 12.684C125.915 12.4693 126.237 12.1473 126.48 11.718C126.732 11.2887 126.858 10.766 126.858 10.15C126.858 9.534 126.736 9.01133 126.494 8.582C126.251 8.15267 125.934 7.83533 125.542 7.63C125.15 7.41533 124.725 7.308 124.268 7.308C123.801 7.308 123.372 7.41533 122.98 7.63C122.597 7.83533 122.289 8.15267 122.056 8.582C121.822 9.01133 121.706 9.534 121.706 10.15C121.706 10.7753 121.818 11.3027 122.042 11.732C122.275 12.1613 122.583 12.4833 122.966 12.698C123.348 12.9033 123.768 13.006 124.226 13.006ZM131.109 7.574C131.333 7.13533 131.65 6.79467 132.061 6.552C132.481 6.30933 132.99 6.188 133.587 6.188V7.504H133.251C131.823 7.504 131.109 8.27867 131.109 9.828V14H129.835V6.328H131.109V7.574ZM141.506 14.126C140.918 14.126 140.391 14.028 139.924 13.832C139.457 13.6267 139.089 13.3467 138.818 12.992C138.547 12.628 138.398 12.2127 138.37 11.746H139.686C139.723 12.1287 139.901 12.4413 140.218 12.684C140.545 12.9267 140.969 13.048 141.492 13.048C141.977 13.048 142.36 12.9407 142.64 12.726C142.92 12.5113 143.06 12.2407 143.06 11.914C143.06 11.578 142.911 11.3307 142.612 11.172C142.313 11.004 141.851 10.8407 141.226 10.682C140.657 10.5327 140.19 10.3833 139.826 10.234C139.471 10.0753 139.163 9.84667 138.902 9.548C138.65 9.24 138.524 8.83867 138.524 8.344C138.524 7.952 138.641 7.59267 138.874 7.266C139.107 6.93933 139.439 6.68267 139.868 6.496C140.297 6.3 140.787 6.202 141.338 6.202C142.187 6.202 142.873 6.41667 143.396 6.846C143.919 7.27533 144.199 7.86333 144.236 8.61H142.962C142.934 8.20867 142.771 7.88667 142.472 7.644C142.183 7.40133 141.791 7.28 141.296 7.28C140.839 7.28 140.475 7.378 140.204 7.574C139.933 7.77 139.798 8.02667 139.798 8.344C139.798 8.596 139.877 8.806 140.036 8.974C140.204 9.13267 140.409 9.26333 140.652 9.366C140.904 9.45933 141.249 9.56667 141.688 9.688C142.239 9.83733 142.687 9.98667 143.032 10.136C143.377 10.276 143.671 10.4907 143.914 10.78C144.166 11.0693 144.297 11.4473 144.306 11.914C144.306 12.334 144.189 12.712 143.956 13.048C143.723 13.384 143.391 13.65 142.962 13.846C142.542 14.0327 142.057 14.126 141.506 14.126ZM146.762 5.082C146.52 5.082 146.314 4.998 146.146 4.83C145.978 4.662 145.894 4.45667 145.894 4.214C145.894 3.97133 145.978 3.766 146.146 3.598C146.314 3.43 146.52 3.346 146.762 3.346C146.996 3.346 147.192 3.43 147.35 3.598C147.518 3.766 147.602 3.97133 147.602 4.214C147.602 4.45667 147.518 4.662 147.35 4.83C147.192 4.998 146.996 5.082 146.762 5.082ZM147.378 6.328V14H146.104V6.328H147.378ZM151.104 7.378V11.9C151.104 12.2733 151.183 12.5393 151.342 12.698C151.5 12.8473 151.776 12.922 152.168 12.922H153.106V14H151.958C151.248 14 150.716 13.8367 150.362 13.51C150.007 13.1833 149.83 12.6467 149.83 11.9V7.378H148.836V6.328H149.83V4.396H151.104V6.328H153.106V7.378H151.104ZM157.906 10.136C157.906 9.352 158.064 8.666 158.382 8.078C158.699 7.48067 159.133 7.01867 159.684 6.692C160.244 6.36533 160.864 6.202 161.546 6.202C162.218 6.202 162.801 6.34667 163.296 6.636C163.79 6.92533 164.159 7.28933 164.402 7.728V6.328H165.69V14H164.402V12.572C164.15 13.02 163.772 13.3933 163.268 13.692C162.773 13.9813 162.194 14.126 161.532 14.126C160.85 14.126 160.234 13.958 159.684 13.622C159.133 13.286 158.699 12.8147 158.382 12.208C158.064 11.6013 157.906 10.9107 157.906 10.136ZM164.402 10.15C164.402 9.57133 164.285 9.06733 164.052 8.638C163.818 8.20867 163.501 7.882 163.1 7.658C162.708 7.42467 162.274 7.308 161.798 7.308C161.322 7.308 160.888 7.42 160.496 7.644C160.104 7.868 159.791 8.19467 159.558 8.624C159.324 9.05333 159.208 9.55733 159.208 10.136C159.208 10.724 159.324 11.2373 159.558 11.676C159.791 12.1053 160.104 12.4367 160.496 12.67C160.888 12.894 161.322 13.006 161.798 13.006C162.274 13.006 162.708 12.894 163.1 12.67C163.501 12.4367 163.818 12.1053 164.052 11.676C164.285 11.2373 164.402 10.7287 164.402 10.15ZM177.069 6.188C177.666 6.188 178.198 6.314 178.665 6.566C179.131 6.80867 179.5 7.17733 179.771 7.672C180.041 8.16667 180.177 8.76867 180.177 9.478V14H178.917V9.66C178.917 8.89467 178.725 8.31133 178.343 7.91C177.969 7.49933 177.461 7.294 176.817 7.294C176.154 7.294 175.627 7.50867 175.235 7.938C174.843 8.358 174.647 8.96933 174.647 9.772V14H173.387V9.66C173.387 8.89467 173.195 8.31133 172.813 7.91C172.439 7.49933 171.931 7.294 171.287 7.294C170.624 7.294 170.097 7.50867 169.705 7.938C169.313 8.358 169.117 8.96933 169.117 9.772V14H167.843V6.328H169.117V7.434C169.369 7.03267 169.705 6.72467 170.125 6.51C170.554 6.29533 171.025 6.188 171.539 6.188C172.183 6.188 172.752 6.33267 173.247 6.622C173.741 6.91133 174.11 7.336 174.353 7.896C174.567 7.35467 174.922 6.93467 175.417 6.636C175.911 6.33733 176.462 6.188 177.069 6.188ZM189.266 9.87C189.266 10.1127 189.252 10.3693 189.224 10.64H183.092C183.139 11.396 183.396 11.9887 183.862 12.418C184.338 12.838 184.912 13.048 185.584 13.048C186.135 13.048 186.592 12.922 186.956 12.67C187.33 12.4087 187.591 12.0633 187.74 11.634H189.112C188.907 12.3713 188.496 12.9733 187.88 13.44C187.264 13.8973 186.499 14.126 185.584 14.126C184.856 14.126 184.203 13.9627 183.624 13.636C183.055 13.3093 182.607 12.8473 182.28 12.25C181.954 11.6433 181.79 10.9433 181.79 10.15C181.79 9.35667 181.949 8.66133 182.266 8.064C182.584 7.46667 183.027 7.00933 183.596 6.692C184.175 6.36533 184.838 6.202 185.584 6.202C186.312 6.202 186.956 6.36067 187.516 6.678C188.076 6.99533 188.506 7.434 188.804 7.994C189.112 8.54467 189.266 9.17 189.266 9.87ZM187.95 9.604C187.95 9.11867 187.843 8.70333 187.628 8.358C187.414 8.00333 187.12 7.73733 186.746 7.56C186.382 7.37333 185.976 7.28 185.528 7.28C184.884 7.28 184.334 7.48533 183.876 7.896C183.428 8.30667 183.172 8.876 183.106 9.604H187.95ZM192.502 7.378V11.9C192.502 12.2733 192.581 12.5393 192.74 12.698C192.899 12.8473 193.174 12.922 193.566 12.922H194.504V14H193.356C192.647 14 192.115 13.8367 191.76 13.51C191.405 13.1833 191.228 12.6467 191.228 11.9V7.378H190.234V6.328H191.228V4.396H192.502V6.328H194.504V7.378H192.502ZM197.364 12.236L195.796 16.002H194.942L195.964 12.236H197.364ZM202.08 10.15C202.08 9.35667 202.238 8.666 202.556 8.078C202.873 7.48067 203.312 7.01867 203.872 6.692C204.441 6.36533 205.09 6.202 205.818 6.202C206.76 6.202 207.535 6.43067 208.142 6.888C208.758 7.34533 209.164 7.98 209.36 8.792H207.988C207.857 8.32533 207.6 7.95667 207.218 7.686C206.844 7.41533 206.378 7.28 205.818 7.28C205.09 7.28 204.502 7.532 204.054 8.036C203.606 8.53067 203.382 9.23533 203.382 10.15C203.382 11.074 203.606 11.788 204.054 12.292C204.502 12.796 205.09 13.048 205.818 13.048C206.378 13.048 206.844 12.9173 207.218 12.656C207.591 12.3947 207.848 12.0213 207.988 11.536H209.36C209.154 12.32 208.744 12.95 208.128 13.426C207.512 13.8927 206.742 14.126 205.818 14.126C205.09 14.126 204.441 13.9627 203.872 13.636C203.312 13.3093 202.873 12.8473 202.556 12.25C202.238 11.6527 202.08 10.9527 202.08 10.15ZM214.405 14.126C213.687 14.126 213.033 13.9627 212.445 13.636C211.867 13.3093 211.409 12.8473 211.073 12.25C210.747 11.6433 210.583 10.9433 210.583 10.15C210.583 9.366 210.751 8.67533 211.087 8.078C211.433 7.47133 211.899 7.00933 212.487 6.692C213.075 6.36533 213.733 6.202 214.461 6.202C215.189 6.202 215.847 6.36533 216.435 6.692C217.023 7.00933 217.485 7.46667 217.821 8.064C218.167 8.66133 218.339 9.35667 218.339 10.15C218.339 10.9433 218.162 11.6433 217.807 12.25C217.462 12.8473 216.991 13.3093 216.393 13.636C215.796 13.9627 215.133 14.126 214.405 14.126ZM214.405 13.006C214.863 13.006 215.292 12.8987 215.693 12.684C216.095 12.4693 216.417 12.1473 216.659 11.718C216.911 11.2887 217.037 10.766 217.037 10.15C217.037 9.534 216.916 9.01133 216.673 8.582C216.431 8.15267 216.113 7.83533 215.721 7.63C215.329 7.41533 214.905 7.308 214.447 7.308C213.981 7.308 213.551 7.41533 213.159 7.63C212.777 7.83533 212.469 8.15267 212.235 8.582C212.002 9.01133 211.885 9.534 211.885 10.15C211.885 10.7753 211.997 11.3027 212.221 11.732C212.455 12.1613 212.763 12.4833 213.145 12.698C213.528 12.9033 213.948 13.006 214.405 13.006ZM223.753 6.188C224.686 6.188 225.442 6.47267 226.021 7.042C226.599 7.602 226.889 8.414 226.889 9.478V14H225.629V9.66C225.629 8.89467 225.437 8.31133 225.055 7.91C224.672 7.49933 224.149 7.294 223.487 7.294C222.815 7.294 222.278 7.504 221.877 7.924C221.485 8.344 221.289 8.95533 221.289 9.758V14H220.015V6.328H221.289V7.42C221.541 7.028 221.881 6.72467 222.311 6.51C222.749 6.29533 223.23 6.188 223.753 6.188ZM231.686 14.126C231.098 14.126 230.57 14.028 230.104 13.832C229.637 13.6267 229.268 13.3467 228.998 12.992C228.727 12.628 228.578 12.2127 228.55 11.746H229.866C229.903 12.1287 230.08 12.4413 230.398 12.684C230.724 12.9267 231.149 13.048 231.672 13.048C232.157 13.048 232.54 12.9407 232.82 12.726C233.1 12.5113 233.24 12.2407 233.24 11.914C233.24 11.578 233.09 11.3307 232.792 11.172C232.493 11.004 232.031 10.8407 231.406 10.682C230.836 10.5327 230.37 10.3833 230.006 10.234C229.651 10.0753 229.343 9.84667 229.082 9.548C228.83 9.24 228.704 8.83867 228.704 8.344C228.704 7.952 228.82 7.59267 229.054 7.266C229.287 6.93933 229.618 6.68267 230.048 6.496C230.477 6.3 230.967 6.202 231.518 6.202C232.367 6.202 233.053 6.41667 233.576 6.846C234.098 7.27533 234.378 7.86333 234.416 8.61H233.142C233.114 8.20867 232.95 7.88667 232.652 7.644C232.362 7.40133 231.97 7.28 231.476 7.28C231.018 7.28 230.654 7.378 230.384 7.574C230.113 7.77 229.978 8.02667 229.978 8.344C229.978 8.596 230.057 8.806 230.216 8.974C230.384 9.13267 230.589 9.26333 230.832 9.366C231.084 9.45933 231.429 9.56667 231.868 9.688C232.418 9.83733 232.866 9.98667 233.212 10.136C233.557 10.276 233.851 10.4907 234.094 10.78C234.346 11.0693 234.476 11.4473 234.486 11.914C234.486 12.334 234.369 12.712 234.136 13.048C233.902 13.384 233.571 13.65 233.142 13.846C232.722 14.0327 232.236 14.126 231.686 14.126ZM243.284 9.87C243.284 10.1127 243.27 10.3693 243.242 10.64H237.11C237.157 11.396 237.413 11.9887 237.88 12.418C238.356 12.838 238.93 13.048 239.602 13.048C240.153 13.048 240.61 12.922 240.974 12.67C241.347 12.4087 241.609 12.0633 241.758 11.634H243.13C242.925 12.3713 242.514 12.9733 241.898 13.44C241.282 13.8973 240.517 14.126 239.602 14.126C238.874 14.126 238.221 13.9627 237.642 13.636C237.073 13.3093 236.625 12.8473 236.298 12.25C235.971 11.6433 235.808 10.9433 235.808 10.15C235.808 9.35667 235.967 8.66133 236.284 8.064C236.601 7.46667 237.045 7.00933 237.614 6.692C238.193 6.36533 238.855 6.202 239.602 6.202C240.33 6.202 240.974 6.36067 241.534 6.678C242.094 6.99533 242.523 7.434 242.822 7.994C243.13 8.54467 243.284 9.17 243.284 9.87ZM241.968 9.604C241.968 9.11867 241.861 8.70333 241.646 8.358C241.431 8.00333 241.137 7.73733 240.764 7.56C240.4 7.37333 239.994 7.28 239.546 7.28C238.902 7.28 238.351 7.48533 237.894 7.896C237.446 8.30667 237.189 8.876 237.124 9.604H241.968ZM244.49 10.15C244.49 9.35667 244.648 8.666 244.966 8.078C245.283 7.48067 245.722 7.01867 246.282 6.692C246.851 6.36533 247.5 6.202 248.228 6.202C249.17 6.202 249.945 6.43067 250.552 6.888C251.168 7.34533 251.574 7.98 251.77 8.792H250.398C250.267 8.32533 250.01 7.95667 249.628 7.686C249.254 7.41533 248.788 7.28 248.228 7.28C247.5 7.28 246.912 7.532 246.464 8.036C246.016 8.53067 245.792 9.23533 245.792 10.15C245.792 11.074 246.016 11.788 246.464 12.292C246.912 12.796 247.5 13.048 248.228 13.048C248.788 13.048 249.254 12.9173 249.628 12.656C250.001 12.3947 250.258 12.0213 250.398 11.536H251.77C251.564 12.32 251.154 12.95 250.538 13.426C249.922 13.8927 249.152 14.126 248.228 14.126C247.5 14.126 246.851 13.9627 246.282 13.636C245.722 13.3093 245.283 12.8473 244.966 12.25C244.648 11.6527 244.49 10.9527 244.49 10.15ZM255.024 7.378V11.9C255.024 12.2733 255.103 12.5393 255.262 12.698C255.42 12.8473 255.696 12.922 256.088 12.922H257.026V14H255.878C255.168 14 254.636 13.8367 254.282 13.51C253.927 13.1833 253.75 12.6467 253.75 11.9V7.378H252.756V6.328H253.75V4.396H255.024V6.328H257.026V7.378H255.024ZM265.569 9.87C265.569 10.1127 265.555 10.3693 265.527 10.64H259.395C259.442 11.396 259.699 11.9887 260.165 12.418C260.641 12.838 261.215 13.048 261.887 13.048C262.438 13.048 262.895 12.922 263.259 12.67C263.633 12.4087 263.894 12.0633 264.043 11.634H265.415C265.21 12.3713 264.799 12.9733 264.183 13.44C263.567 13.8973 262.802 14.126 261.887 14.126C261.159 14.126 260.506 13.9627 259.927 13.636C259.358 13.3093 258.91 12.8473 258.583 12.25C258.257 11.6433 258.093 10.9433 258.093 10.15C258.093 9.35667 258.252 8.66133 258.569 8.064C258.887 7.46667 259.33 7.00933 259.899 6.692C260.478 6.36533 261.141 6.202 261.887 6.202C262.615 6.202 263.259 6.36067 263.819 6.678C264.379 6.99533 264.809 7.434 265.107 7.994C265.415 8.54467 265.569 9.17 265.569 9.87ZM264.253 9.604C264.253 9.11867 264.146 8.70333 263.931 8.358C263.717 8.00333 263.423 7.73733 263.049 7.56C262.685 7.37333 262.279 7.28 261.831 7.28C261.187 7.28 260.637 7.48533 260.179 7.896C259.731 8.30667 259.475 8.876 259.409 9.604H264.253ZM268.805 7.378V11.9C268.805 12.2733 268.884 12.5393 269.043 12.698C269.202 12.8473 269.477 12.922 269.869 12.922H270.807V14H269.659C268.95 14 268.418 13.8367 268.063 13.51C267.708 13.1833 267.531 12.6467 267.531 11.9V7.378H266.537V6.328H267.531V4.396H268.805V6.328H270.807V7.378H268.805ZM279.154 6.328V14H277.88V12.866C277.638 13.258 277.297 13.566 276.858 13.79C276.429 14.0047 275.953 14.112 275.43 14.112C274.833 14.112 274.296 13.9907 273.82 13.748C273.344 13.496 272.966 13.1227 272.686 12.628C272.416 12.1333 272.28 11.5313 272.28 10.822V6.328H273.54V10.654C273.54 11.41 273.732 11.9933 274.114 12.404C274.497 12.8053 275.02 13.006 275.682 13.006C276.364 13.006 276.9 12.796 277.292 12.376C277.684 11.956 277.88 11.3447 277.88 10.542V6.328H279.154ZM282.58 7.574C282.804 7.13533 283.121 6.79467 283.532 6.552C283.952 6.30933 284.46 6.188 285.058 6.188V7.504H284.722C283.294 7.504 282.58 8.27867 282.58 9.828V14H281.306V6.328H282.58V7.574ZM6.57856 29.136C6.57856 28.352 6.73723 27.666 7.05456 27.078C7.3719 26.4807 7.8059 26.0187 8.35656 25.692C8.91656 25.3653 9.53723 25.202 10.2186 25.202C10.8906 25.202 11.4739 25.3467 11.9686 25.636C12.4632 25.9253 12.8319 26.2893 13.0746 26.728V25.328H14.3626V33H13.0746V31.572C12.8226 32.02 12.4446 32.3933 11.9406 32.692C11.4459 32.9813 10.8672 33.126 10.2046 33.126C9.52323 33.126 8.90723 32.958 8.35656 32.622C7.8059 32.286 7.3719 31.8147 7.05456 31.208C6.73723 30.6013 6.57856 29.9107 6.57856 29.136ZM13.0746 29.15C13.0746 28.5713 12.9579 28.0673 12.7246 27.638C12.4912 27.2087 12.1739 26.882 11.7726 26.658C11.3806 26.4247 10.9466 26.308 10.4706 26.308C9.99456 26.308 9.56056 26.42 9.16856 26.644C8.77656 26.868 8.4639 27.1947 8.23056 27.624C7.99723 28.0533 7.88056 28.5573 7.88056 29.136C7.88056 29.724 7.99723 30.2373 8.23056 30.676C8.4639 31.1053 8.77656 31.4367 9.16856 31.67C9.56056 31.894 9.99456 32.006 10.4706 32.006C10.9466 32.006 11.3806 31.894 11.7726 31.67C12.1739 31.4367 12.4912 31.1053 12.7246 30.676C12.9579 30.2373 13.0746 29.7287 13.0746 29.15ZM16.0395 29.136C16.0395 28.352 16.1982 27.666 16.5155 27.078C16.8328 26.4807 17.2668 26.0187 17.8175 25.692C18.3775 25.3653 19.0028 25.202 19.6935 25.202C20.2908 25.202 20.8462 25.342 21.3595 25.622C21.8728 25.8927 22.2648 26.252 22.5355 26.7V22.64H23.8235V33H22.5355V31.558C22.2835 32.0153 21.9102 32.3933 21.4155 32.692C20.9208 32.9813 20.3422 33.126 19.6795 33.126C18.9982 33.126 18.3775 32.958 17.8175 32.622C17.2668 32.286 16.8328 31.8147 16.5155 31.208C16.1982 30.6013 16.0395 29.9107 16.0395 29.136ZM22.5355 29.15C22.5355 28.5713 22.4188 28.0673 22.1855 27.638C21.9522 27.2087 21.6348 26.882 21.2335 26.658C20.8415 26.4247 20.4075 26.308 19.9315 26.308C19.4555 26.308 19.0215 26.42 18.6295 26.644C18.2375 26.868 17.9248 27.1947 17.6915 27.624C17.4582 28.0533 17.3415 28.5573 17.3415 29.136C17.3415 29.724 17.4582 30.2373 17.6915 30.676C17.9248 31.1053 18.2375 31.4367 18.6295 31.67C19.0215 31.894 19.4555 32.006 19.9315 32.006C20.4075 32.006 20.8415 31.894 21.2335 31.67C21.6348 31.4367 21.9522 31.1053 22.1855 30.676C22.4188 30.2373 22.5355 29.7287 22.5355 29.15ZM26.6344 24.082C26.3918 24.082 26.1864 23.998 26.0184 23.83C25.8504 23.662 25.7664 23.4567 25.7664 23.214C25.7664 22.9713 25.8504 22.766 26.0184 22.598C26.1864 22.43 26.3918 22.346 26.6344 22.346C26.8678 22.346 27.0638 22.43 27.2224 22.598C27.3904 22.766 27.4744 22.9713 27.4744 23.214C27.4744 23.4567 27.3904 23.662 27.2224 23.83C27.0638 23.998 26.8678 24.082 26.6344 24.082ZM27.2504 25.328V33H25.9764V25.328H27.2504ZM30.6958 26.742C30.9478 26.3033 31.3211 25.9393 31.8158 25.65C32.3198 25.3513 32.9031 25.202 33.5658 25.202C34.2471 25.202 34.8631 25.3653 35.4137 25.692C35.9737 26.0187 36.4124 26.4807 36.7298 27.078C37.0471 27.666 37.2058 28.352 37.2058 29.136C37.2058 29.9107 37.0471 30.6013 36.7298 31.208C36.4124 31.8147 35.9737 32.286 35.4137 32.622C34.8631 32.958 34.2471 33.126 33.5658 33.126C32.9124 33.126 32.3338 32.9813 31.8298 32.692C31.3351 32.3933 30.9571 32.0247 30.6958 31.586V36.64H29.4218V25.328H30.6958V26.742ZM35.9038 29.136C35.9038 28.5573 35.7871 28.0533 35.5538 27.624C35.3204 27.1947 35.0031 26.868 34.6018 26.644C34.2098 26.42 33.7758 26.308 33.2998 26.308C32.8331 26.308 32.3991 26.4247 31.9978 26.658C31.6058 26.882 31.2884 27.2133 31.0458 27.652C30.8124 28.0813 30.6958 28.5807 30.6958 29.15C30.6958 29.7287 30.8124 30.2373 31.0458 30.676C31.2884 31.1053 31.6058 31.4367 31.9978 31.67C32.3991 31.894 32.8331 32.006 33.2998 32.006C33.7758 32.006 34.2098 31.894 34.6018 31.67C35.0031 31.4367 35.3204 31.1053 35.5538 30.676C35.7871 30.2373 35.9038 29.724 35.9038 29.136ZM39.5407 24.082C39.298 24.082 39.0927 23.998 38.9247 23.83C38.7567 23.662 38.6727 23.4567 38.6727 23.214C38.6727 22.9713 38.7567 22.766 38.9247 22.598C39.0927 22.43 39.298 22.346 39.5407 22.346C39.774 22.346 39.97 22.43 40.1287 22.598C40.2967 22.766 40.3807 22.9713 40.3807 23.214C40.3807 23.4567 40.2967 23.662 40.1287 23.83C39.97 23.998 39.774 24.082 39.5407 24.082ZM40.1567 25.328V33H38.8827V25.328H40.1567ZM45.044 33.126C44.456 33.126 43.9287 33.028 43.462 32.832C42.9953 32.6267 42.6267 32.3467 42.356 31.992C42.0853 31.628 41.936 31.2127 41.908 30.746H43.224C43.2613 31.1287 43.4387 31.4413 43.756 31.684C44.0827 31.9267 44.5073 32.048 45.03 32.048C45.5153 32.048 45.898 31.9407 46.178 31.726C46.458 31.5113 46.598 31.2407 46.598 30.914C46.598 30.578 46.4487 30.3307 46.15 30.172C45.8513 30.004 45.3893 29.8407 44.764 29.682C44.1947 29.5327 43.728 29.3833 43.364 29.234C43.0093 29.0753 42.7013 28.8467 42.44 28.548C42.188 28.24 42.062 27.8387 42.062 27.344C42.062 26.952 42.1787 26.5927 42.412 26.266C42.6453 25.9393 42.9767 25.6827 43.406 25.496C43.8353 25.3 44.3253 25.202 44.876 25.202C45.7253 25.202 46.4113 25.4167 46.934 25.846C47.4567 26.2753 47.7367 26.8633 47.774 27.61H46.5C46.472 27.2087 46.3087 26.8867 46.01 26.644C45.7207 26.4013 45.3287 26.28 44.834 26.28C44.3767 26.28 44.0127 26.378 43.742 26.574C43.4713 26.77 43.336 27.0267 43.336 27.344C43.336 27.596 43.4153 27.806 43.574 27.974C43.742 28.1327 43.9473 28.2633 44.19 28.366C44.442 28.4593 44.7873 28.5667 45.226 28.688C45.7767 28.8373 46.2247 28.9867 46.57 29.136C46.9153 29.276 47.2093 29.4907 47.452 29.78C47.704 30.0693 47.8347 30.4473 47.844 30.914C47.844 31.334 47.7273 31.712 47.494 32.048C47.2607 32.384 46.9293 32.65 46.5 32.846C46.08 33.0327 45.5947 33.126 45.044 33.126ZM49.1665 29.15C49.1665 28.3567 49.3251 27.666 49.6425 27.078C49.9598 26.4807 50.3985 26.0187 50.9585 25.692C51.5278 25.3653 52.1765 25.202 52.9045 25.202C53.8471 25.202 54.6218 25.4307 55.2285 25.888C55.8445 26.3453 56.2505 26.98 56.4465 27.792H55.0745C54.9438 27.3253 54.6871 26.9567 54.3045 26.686C53.9311 26.4153 53.4645 26.28 52.9045 26.28C52.1765 26.28 51.5885 26.532 51.1405 27.036C50.6925 27.5307 50.4685 28.2353 50.4685 29.15C50.4685 30.074 50.6925 30.788 51.1405 31.292C51.5885 31.796 52.1765 32.048 52.9045 32.048C53.4645 32.048 53.9311 31.9173 54.3045 31.656C54.6778 31.3947 54.9345 31.0213 55.0745 30.536H56.4465C56.2411 31.32 55.8305 31.95 55.2145 32.426C54.5985 32.8927 53.8285 33.126 52.9045 33.126C52.1765 33.126 51.5278 32.9627 50.9585 32.636C50.3985 32.3093 49.9598 31.8473 49.6425 31.25C49.3251 30.6527 49.1665 29.9527 49.1665 29.15ZM58.8044 24.082C58.5617 24.082 58.3564 23.998 58.1884 23.83C58.0204 23.662 57.9364 23.4567 57.9364 23.214C57.9364 22.9713 58.0204 22.766 58.1884 22.598C58.3564 22.43 58.5617 22.346 58.8044 22.346C59.0377 22.346 59.2337 22.43 59.3924 22.598C59.5604 22.766 59.6444 22.9713 59.6444 23.214C59.6444 23.4567 59.5604 23.662 59.3924 23.83C59.2337 23.998 59.0377 24.082 58.8044 24.082ZM59.4204 25.328V33H58.1464V25.328H59.4204ZM65.3297 25.188C66.263 25.188 67.019 25.4727 67.5977 26.042C68.1763 26.602 68.4657 27.414 68.4657 28.478V33H67.2057V28.66C67.2057 27.8947 67.0143 27.3113 66.6317 26.91C66.249 26.4993 65.7263 26.294 65.0637 26.294C64.3917 26.294 63.855 26.504 63.4537 26.924C63.0617 27.344 62.8657 27.9553 62.8657 28.758V33H61.5917V25.328H62.8657V26.42C63.1177 26.028 63.4583 25.7247 63.8877 25.51C64.3263 25.2953 64.807 25.188 65.3297 25.188ZM73.7108 25.202C74.3734 25.202 74.9521 25.3467 75.4468 25.636C75.9508 25.9253 76.3241 26.2893 76.5668 26.728V25.328H77.8548V33.168C77.8548 33.868 77.7054 34.4887 77.4068 35.03C77.1081 35.5807 76.6788 36.01 76.1188 36.318C75.5681 36.626 74.9241 36.78 74.1868 36.78C73.1788 36.78 72.3388 36.542 71.6668 36.066C70.9948 35.59 70.5981 34.9413 70.4768 34.12H71.7368C71.8768 34.5867 72.1661 34.96 72.6048 35.24C73.0434 35.5293 73.5708 35.674 74.1868 35.674C74.8868 35.674 75.4561 35.4547 75.8948 35.016C76.3428 34.5773 76.5668 33.9613 76.5668 33.168V31.558C76.3148 32.006 75.9414 32.3793 75.4468 32.678C74.9521 32.9767 74.3734 33.126 73.7108 33.126C73.0294 33.126 72.4088 32.958 71.8488 32.622C71.2981 32.286 70.8641 31.8147 70.5468 31.208C70.2294 30.6013 70.0708 29.9107 70.0708 29.136C70.0708 28.352 70.2294 27.666 70.5468 27.078C70.8641 26.4807 71.2981 26.0187 71.8488 25.692C72.4088 25.3653 73.0294 25.202 73.7108 25.202ZM76.5668 29.15C76.5668 28.5713 76.4501 28.0673 76.2168 27.638C75.9834 27.2087 75.6661 26.882 75.2648 26.658C74.8728 26.4247 74.4388 26.308 73.9628 26.308C73.4868 26.308 73.0528 26.42 72.6608 26.644C72.2688 26.868 71.9561 27.1947 71.7228 27.624C71.4894 28.0533 71.3728 28.5573 71.3728 29.136C71.3728 29.724 71.4894 30.2373 71.7228 30.676C71.9561 31.1053 72.2688 31.4367 72.6608 31.67C73.0528 31.894 73.4868 32.006 73.9628 32.006C74.4388 32.006 74.8728 31.894 75.2648 31.67C75.6661 31.4367 75.9834 31.1053 76.2168 30.676C76.4501 30.2373 76.5668 29.7287 76.5668 29.15ZM90.7401 28.87C90.7401 29.1127 90.7261 29.3693 90.6981 29.64H84.5661C84.6128 30.396 84.8694 30.9887 85.3361 31.418C85.8121 31.838 86.3861 32.048 87.0581 32.048C87.6088 32.048 88.0661 31.922 88.4301 31.67C88.8034 31.4087 89.0648 31.0633 89.2141 30.634H90.5861C90.3808 31.3713 89.9701 31.9733 89.3541 32.44C88.7381 32.8973 87.9728 33.126 87.0581 33.126C86.3301 33.126 85.6768 32.9627 85.0981 32.636C84.5288 32.3093 84.0808 31.8473 83.7541 31.25C83.4274 30.6433 83.2641 29.9433 83.2641 29.15C83.2641 28.3567 83.4228 27.6613 83.7401 27.064C84.0574 26.4667 84.5008 26.0093 85.0701 25.692C85.6488 25.3653 86.3114 25.202 87.0581 25.202C87.7861 25.202 88.4301 25.3607 88.9901 25.678C89.5501 25.9953 89.9794 26.434 90.2781 26.994C90.5861 27.5447 90.7401 28.17 90.7401 28.87ZM89.4241 28.604C89.4241 28.1187 89.3168 27.7033 89.1021 27.358C88.8874 27.0033 88.5934 26.7373 88.2201 26.56C87.8561 26.3733 87.4501 26.28 87.0021 26.28C86.3581 26.28 85.8074 26.4853 85.3501 26.896C84.9021 27.3067 84.6454 27.876 84.5801 28.604H89.4241ZM93.6958 22.64V33H92.4218V22.64H93.6958ZM96.5251 24.082C96.2824 24.082 96.0771 23.998 95.9091 23.83C95.7411 23.662 95.6571 23.4567 95.6571 23.214C95.6571 22.9713 95.7411 22.766 95.9091 22.598C96.0771 22.43 96.2824 22.346 96.5251 22.346C96.7584 22.346 96.9544 22.43 97.1131 22.598C97.2811 22.766 97.3651 22.9713 97.3651 23.214C97.3651 23.4567 97.2811 23.662 97.1131 23.83C96.9544 23.998 96.7584 24.082 96.5251 24.082ZM97.1411 25.328V33H95.8671V25.328H97.1411ZM100.866 26.378V30.9C100.866 31.2733 100.946 31.5393 101.104 31.698C101.263 31.8473 101.538 31.922 101.93 31.922H102.868V33H101.72C101.011 33 100.479 32.8367 100.124 32.51C99.7697 32.1833 99.5924 31.6467 99.5924 30.9V26.378H98.5984V25.328H99.5924V23.396H100.866V25.328H102.868V26.378H100.866ZM104.818 33.084C104.575 33.084 104.37 33 104.202 32.832C104.034 32.664 103.95 32.4587 103.95 32.216C103.95 31.9733 104.034 31.768 104.202 31.6C104.37 31.432 104.575 31.348 104.818 31.348C105.051 31.348 105.247 31.432 105.406 31.6C105.574 31.768 105.658 31.9733 105.658 32.216C105.658 32.4587 105.574 32.664 105.406 32.832C105.247 33 105.051 33.084 104.818 33.084ZM114.178 33.098C113.534 33.098 112.955 32.986 112.442 32.762C111.938 32.5287 111.541 32.2113 111.252 31.81C110.963 31.3993 110.813 30.928 110.804 30.396H112.162C112.209 30.8533 112.395 31.2407 112.722 31.558C113.058 31.866 113.543 32.02 114.178 32.02C114.785 32.02 115.261 31.8707 115.606 31.572C115.961 31.264 116.138 30.872 116.138 30.396C116.138 30.0227 116.035 29.7193 115.83 29.486C115.625 29.2527 115.368 29.0753 115.06 28.954C114.752 28.8327 114.337 28.702 113.814 28.562C113.17 28.394 112.652 28.226 112.26 28.058C111.877 27.89 111.546 27.6287 111.266 27.274C110.995 26.91 110.86 26.4247 110.86 25.818C110.86 25.286 110.995 24.8147 111.266 24.404C111.537 23.9933 111.915 23.676 112.4 23.452C112.895 23.228 113.459 23.116 114.094 23.116C115.009 23.116 115.755 23.3447 116.334 23.802C116.922 24.2593 117.253 24.866 117.328 25.622H115.928C115.881 25.2487 115.685 24.922 115.34 24.642C114.995 24.3527 114.537 24.208 113.968 24.208C113.436 24.208 113.002 24.348 112.666 24.628C112.33 24.8987 112.162 25.2813 112.162 25.776C112.162 26.1307 112.26 26.42 112.456 26.644C112.661 26.868 112.909 27.0407 113.198 27.162C113.497 27.274 113.912 27.4047 114.444 27.554C115.088 27.7313 115.606 27.9087 115.998 28.086C116.39 28.254 116.726 28.52 117.006 28.884C117.286 29.2387 117.426 29.724 117.426 30.34C117.426 30.816 117.3 31.264 117.048 31.684C116.796 32.104 116.423 32.4447 115.928 32.706C115.433 32.9673 114.85 33.098 114.178 33.098ZM126.105 25.328V33H124.831V31.866C124.588 32.258 124.247 32.566 123.809 32.79C123.379 33.0047 122.903 33.112 122.381 33.112C121.783 33.112 121.247 32.9907 120.771 32.748C120.295 32.496 119.917 32.1227 119.637 31.628C119.366 31.1333 119.231 30.5313 119.231 29.822V25.328H120.491V29.654C120.491 30.41 120.682 30.9933 121.065 31.404C121.447 31.8053 121.97 32.006 122.633 32.006C123.314 32.006 123.851 31.796 124.243 31.376C124.635 30.956 124.831 30.3447 124.831 29.542V25.328H126.105ZM130.972 33.126C130.384 33.126 129.856 33.028 129.39 32.832C128.923 32.6267 128.554 32.3467 128.284 31.992C128.013 31.628 127.864 31.2127 127.836 30.746H129.152C129.189 31.1287 129.366 31.4413 129.684 31.684C130.01 31.9267 130.435 32.048 130.958 32.048C131.443 32.048 131.826 31.9407 132.106 31.726C132.386 31.5113 132.526 31.2407 132.526 30.914C132.526 30.578 132.376 30.3307 132.078 30.172C131.779 30.004 131.317 29.8407 130.692 29.682C130.122 29.5327 129.656 29.3833 129.292 29.234C128.937 29.0753 128.629 28.8467 128.368 28.548C128.116 28.24 127.99 27.8387 127.99 27.344C127.99 26.952 128.106 26.5927 128.34 26.266C128.573 25.9393 128.904 25.6827 129.334 25.496C129.763 25.3 130.253 25.202 130.804 25.202C131.653 25.202 132.339 25.4167 132.862 25.846C133.384 26.2753 133.664 26.8633 133.702 27.61H132.428C132.4 27.2087 132.236 26.8867 131.938 26.644C131.648 26.4013 131.256 26.28 130.762 26.28C130.304 26.28 129.94 26.378 129.67 26.574C129.399 26.77 129.264 27.0267 129.264 27.344C129.264 27.596 129.343 27.806 129.502 27.974C129.67 28.1327 129.875 28.2633 130.118 28.366C130.37 28.4593 130.715 28.5667 131.154 28.688C131.704 28.8373 132.152 28.9867 132.498 29.136C132.843 29.276 133.137 29.4907 133.38 29.78C133.632 30.0693 133.762 30.4473 133.772 30.914C133.772 31.334 133.655 31.712 133.422 32.048C133.188 32.384 132.857 32.65 132.428 32.846C132.008 33.0327 131.522 33.126 130.972 33.126ZM136.844 26.742C137.096 26.3033 137.47 25.9393 137.964 25.65C138.468 25.3513 139.052 25.202 139.714 25.202C140.396 25.202 141.012 25.3653 141.562 25.692C142.122 26.0187 142.561 26.4807 142.878 27.078C143.196 27.666 143.354 28.352 143.354 29.136C143.354 29.9107 143.196 30.6013 142.878 31.208C142.561 31.8147 142.122 32.286 141.562 32.622C141.012 32.958 140.396 33.126 139.714 33.126C139.061 33.126 138.482 32.9813 137.978 32.692C137.484 32.3933 137.106 32.0247 136.844 31.586V36.64H135.57V25.328H136.844V26.742ZM142.052 29.136C142.052 28.5573 141.936 28.0533 141.702 27.624C141.469 27.1947 141.152 26.868 140.75 26.644C140.358 26.42 139.924 26.308 139.448 26.308C138.982 26.308 138.548 26.4247 138.146 26.658C137.754 26.882 137.437 27.2133 137.194 27.652C136.961 28.0813 136.844 28.5807 136.844 29.15C136.844 29.7287 136.961 30.2373 137.194 30.676C137.437 31.1053 137.754 31.4367 138.146 31.67C138.548 31.894 138.982 32.006 139.448 32.006C139.924 32.006 140.358 31.894 140.75 31.67C141.152 31.4367 141.469 31.1053 141.702 30.676C141.936 30.2373 142.052 29.724 142.052 29.136ZM152.031 28.87C152.031 29.1127 152.017 29.3693 151.989 29.64H145.857C145.904 30.396 146.16 30.9887 146.627 31.418C147.103 31.838 147.677 32.048 148.349 32.048C148.9 32.048 149.357 31.922 149.721 31.67C150.094 31.4087 150.356 31.0633 150.505 30.634H151.877C151.672 31.3713 151.261 31.9733 150.645 32.44C150.029 32.8973 149.264 33.126 148.349 33.126C147.621 33.126 146.968 32.9627 146.389 32.636C145.82 32.3093 145.372 31.8473 145.045 31.25C144.718 30.6433 144.555 29.9433 144.555 29.15C144.555 28.3567 144.714 27.6613 145.031 27.064C145.348 26.4667 145.792 26.0093 146.361 25.692C146.94 25.3653 147.602 25.202 148.349 25.202C149.077 25.202 149.721 25.3607 150.281 25.678C150.841 25.9953 151.27 26.434 151.569 26.994C151.877 27.5447 152.031 28.17 152.031 28.87ZM150.715 28.604C150.715 28.1187 150.608 27.7033 150.393 27.358C150.178 27.0033 149.884 26.7373 149.511 26.56C149.147 26.3733 148.741 26.28 148.293 26.28C147.649 26.28 147.098 26.4853 146.641 26.896C146.193 27.3067 145.936 27.876 145.871 28.604H150.715ZM157.451 25.188C158.384 25.188 159.14 25.4727 159.719 26.042C160.297 26.602 160.587 27.414 160.587 28.478V33H159.327V28.66C159.327 27.8947 159.135 27.3113 158.753 26.91C158.37 26.4993 157.847 26.294 157.185 26.294C156.513 26.294 155.976 26.504 155.575 26.924C155.183 27.344 154.987 27.9553 154.987 28.758V33H153.713V25.328H154.987V26.42C155.239 26.028 155.579 25.7247 156.009 25.51C156.447 25.2953 156.928 25.188 157.451 25.188ZM162.192 29.136C162.192 28.352 162.351 27.666 162.668 27.078C162.985 26.4807 163.419 26.0187 163.97 25.692C164.53 25.3653 165.155 25.202 165.846 25.202C166.443 25.202 166.999 25.342 167.512 25.622C168.025 25.8927 168.417 26.252 168.688 26.7V22.64H169.976V33H168.688V31.558C168.436 32.0153 168.063 32.3933 167.568 32.692C167.073 32.9813 166.495 33.126 165.832 33.126C165.151 33.126 164.53 32.958 163.97 32.622C163.419 32.286 162.985 31.8147 162.668 31.208C162.351 30.6013 162.192 29.9107 162.192 29.136ZM168.688 29.15C168.688 28.5713 168.571 28.0673 168.338 27.638C168.105 27.2087 167.787 26.882 167.386 26.658C166.994 26.4247 166.56 26.308 166.084 26.308C165.608 26.308 165.174 26.42 164.782 26.644C164.39 26.868 164.077 27.1947 163.844 27.624C163.611 28.0533 163.494 28.5573 163.494 29.136C163.494 29.724 163.611 30.2373 163.844 30.676C164.077 31.1053 164.39 31.4367 164.782 31.67C165.174 31.894 165.608 32.006 166.084 32.006C166.56 32.006 166.994 31.894 167.386 31.67C167.787 31.4367 168.105 31.1053 168.338 30.676C168.571 30.2373 168.688 29.7287 168.688 29.15ZM172.787 24.082C172.544 24.082 172.339 23.998 172.171 23.83C172.003 23.662 171.919 23.4567 171.919 23.214C171.919 22.9713 172.003 22.766 172.171 22.598C172.339 22.43 172.544 22.346 172.787 22.346C173.02 22.346 173.216 22.43 173.375 22.598C173.543 22.766 173.627 22.9713 173.627 23.214C173.627 23.4567 173.543 23.662 173.375 23.83C173.216 23.998 173.02 24.082 172.787 24.082ZM173.403 25.328V33H172.129V25.328H173.403ZM178.29 33.126C177.702 33.126 177.175 33.028 176.708 32.832C176.241 32.6267 175.873 32.3467 175.602 31.992C175.331 31.628 175.182 31.2127 175.154 30.746H176.47C176.507 31.1287 176.685 31.4413 177.002 31.684C177.329 31.9267 177.753 32.048 178.276 32.048C178.761 32.048 179.144 31.9407 179.424 31.726C179.704 31.5113 179.844 31.2407 179.844 30.914C179.844 30.578 179.695 30.3307 179.396 30.172C179.097 30.004 178.635 29.8407 178.01 29.682C177.441 29.5327 176.974 29.3833 176.61 29.234C176.255 29.0753 175.947 28.8467 175.686 28.548C175.434 28.24 175.308 27.8387 175.308 27.344C175.308 26.952 175.425 26.5927 175.658 26.266C175.891 25.9393 176.223 25.6827 176.652 25.496C177.081 25.3 177.571 25.202 178.122 25.202C178.971 25.202 179.657 25.4167 180.18 25.846C180.703 26.2753 180.983 26.8633 181.02 27.61H179.746C179.718 27.2087 179.555 26.8867 179.256 26.644C178.967 26.4013 178.575 26.28 178.08 26.28C177.623 26.28 177.259 26.378 176.988 26.574C176.717 26.77 176.582 27.0267 176.582 27.344C176.582 27.596 176.661 27.806 176.82 27.974C176.988 28.1327 177.193 28.2633 177.436 28.366C177.688 28.4593 178.033 28.5667 178.472 28.688C179.023 28.8373 179.471 28.9867 179.816 29.136C180.161 29.276 180.455 29.4907 180.698 29.78C180.95 30.0693 181.081 30.4473 181.09 30.914C181.09 31.334 180.973 31.712 180.74 32.048C180.507 32.384 180.175 32.65 179.746 32.846C179.326 33.0327 178.841 33.126 178.29 33.126ZM185.605 33.126C185.017 33.126 184.489 33.028 184.023 32.832C183.556 32.6267 183.187 32.3467 182.917 31.992C182.646 31.628 182.497 31.2127 182.469 30.746H183.785C183.822 31.1287 183.999 31.4413 184.317 31.684C184.643 31.9267 185.068 32.048 185.591 32.048C186.076 32.048 186.459 31.9407 186.739 31.726C187.019 31.5113 187.159 31.2407 187.159 30.914C187.159 30.578 187.009 30.3307 186.711 30.172C186.412 30.004 185.95 29.8407 185.325 29.682C184.755 29.5327 184.289 29.3833 183.925 29.234C183.57 29.0753 183.262 28.8467 183.001 28.548C182.749 28.24 182.623 27.8387 182.623 27.344C182.623 26.952 182.739 26.5927 182.973 26.266C183.206 25.9393 183.537 25.6827 183.967 25.496C184.396 25.3 184.886 25.202 185.437 25.202C186.286 25.202 186.972 25.4167 187.495 25.846C188.017 26.2753 188.297 26.8633 188.335 27.61H187.061C187.033 27.2087 186.869 26.8867 186.571 26.644C186.281 26.4013 185.889 26.28 185.395 26.28C184.937 26.28 184.573 26.378 184.303 26.574C184.032 26.77 183.897 27.0267 183.897 27.344C183.897 27.596 183.976 27.806 184.135 27.974C184.303 28.1327 184.508 28.2633 184.751 28.366C185.003 28.4593 185.348 28.5667 185.787 28.688C186.337 28.8373 186.785 28.9867 187.131 29.136C187.476 29.276 187.77 29.4907 188.013 29.78C188.265 30.0693 188.395 30.4473 188.405 30.914C188.405 31.334 188.288 31.712 188.055 32.048C187.821 32.384 187.49 32.65 187.061 32.846C186.641 33.0327 186.155 33.126 185.605 33.126ZM197.203 28.87C197.203 29.1127 197.189 29.3693 197.161 29.64H191.029C191.076 30.396 191.332 30.9887 191.799 31.418C192.275 31.838 192.849 32.048 193.521 32.048C194.072 32.048 194.529 31.922 194.893 31.67C195.266 31.4087 195.528 31.0633 195.677 30.634H197.049C196.844 31.3713 196.433 31.9733 195.817 32.44C195.201 32.8973 194.436 33.126 193.521 33.126C192.793 33.126 192.14 32.9627 191.561 32.636C190.992 32.3093 190.544 31.8473 190.217 31.25C189.89 30.6433 189.727 29.9433 189.727 29.15C189.727 28.3567 189.886 27.6613 190.203 27.064C190.52 26.4667 190.964 26.0093 191.533 25.692C192.112 25.3653 192.774 25.202 193.521 25.202C194.249 25.202 194.893 25.3607 195.453 25.678C196.013 25.9953 196.442 26.434 196.741 26.994C197.049 27.5447 197.203 28.17 197.203 28.87ZM195.887 28.604C195.887 28.1187 195.78 27.7033 195.565 27.358C195.35 27.0033 195.056 26.7373 194.683 26.56C194.319 26.3733 193.913 26.28 193.465 26.28C192.821 26.28 192.27 26.4853 191.813 26.896C191.365 27.3067 191.108 27.876 191.043 28.604H195.887ZM205.473 31.824L207.853 25.328H209.211L206.201 33H204.717L201.707 25.328H203.079L205.473 31.824ZM209.989 29.136C209.989 28.352 210.147 27.666 210.465 27.078C210.782 26.4807 211.216 26.0187 211.767 25.692C212.327 25.3653 212.947 25.202 213.629 25.202C214.301 25.202 214.884 25.3467 215.379 25.636C215.873 25.9253 216.242 26.2893 216.485 26.728V25.328H217.773V33H216.485V31.572C216.233 32.02 215.855 32.3933 215.351 32.692C214.856 32.9813 214.277 33.126 213.615 33.126C212.933 33.126 212.317 32.958 211.767 32.622C211.216 32.286 210.782 31.8147 210.465 31.208C210.147 30.6013 209.989 29.9107 209.989 29.136ZM216.485 29.15C216.485 28.5713 216.368 28.0673 216.135 27.638C215.901 27.2087 215.584 26.882 215.183 26.658C214.791 26.4247 214.357 26.308 213.881 26.308C213.405 26.308 212.971 26.42 212.579 26.644C212.187 26.868 211.874 27.1947 211.641 27.624C211.407 28.0533 211.291 28.5573 211.291 29.136C211.291 29.724 211.407 30.2373 211.641 30.676C211.874 31.1053 212.187 31.4367 212.579 31.67C212.971 31.894 213.405 32.006 213.881 32.006C214.357 32.006 214.791 31.894 215.183 31.67C215.584 31.4367 215.901 31.1053 216.135 30.676C216.368 30.2373 216.485 29.7287 216.485 29.15ZM221.2 26.574C221.424 26.1353 221.741 25.7947 222.152 25.552C222.572 25.3093 223.08 25.188 223.678 25.188V26.504H223.342C221.914 26.504 221.2 27.2787 221.2 28.828V33H219.926V25.328H221.2V26.574ZM225.806 24.082C225.564 24.082 225.358 23.998 225.19 23.83C225.022 23.662 224.938 23.4567 224.938 23.214C224.938 22.9713 225.022 22.766 225.19 22.598C225.358 22.43 225.564 22.346 225.806 22.346C226.04 22.346 226.236 22.43 226.394 22.598C226.562 22.766 226.646 22.9713 226.646 23.214C226.646 23.4567 226.562 23.662 226.394 23.83C226.236 23.998 226.04 24.082 225.806 24.082ZM226.422 25.328V33H225.148V25.328H226.422ZM235.398 25.328V33H234.124V31.866C233.881 32.258 233.54 32.566 233.102 32.79C232.672 33.0047 232.196 33.112 231.674 33.112C231.076 33.112 230.54 32.9907 230.064 32.748C229.588 32.496 229.21 32.1227 228.93 31.628C228.659 31.1333 228.524 30.5313 228.524 29.822V25.328H229.784V29.654C229.784 30.41 229.975 30.9933 230.358 31.404C230.74 31.8053 231.263 32.006 231.926 32.006C232.607 32.006 233.144 31.796 233.536 31.376C233.928 30.956 234.124 30.3447 234.124 29.542V25.328H235.398ZM240.265 33.126C239.677 33.126 239.149 33.028 238.683 32.832C238.216 32.6267 237.847 32.3467 237.577 31.992C237.306 31.628 237.157 31.2127 237.129 30.746H238.445C238.482 31.1287 238.659 31.4413 238.977 31.684C239.303 31.9267 239.728 32.048 240.251 32.048C240.736 32.048 241.119 31.9407 241.399 31.726C241.679 31.5113 241.819 31.2407 241.819 30.914C241.819 30.578 241.669 30.3307 241.371 30.172C241.072 30.004 240.61 29.8407 239.985 29.682C239.415 29.5327 238.949 29.3833 238.585 29.234C238.23 29.0753 237.922 28.8467 237.661 28.548C237.409 28.24 237.283 27.8387 237.283 27.344C237.283 26.952 237.399 26.5927 237.633 26.266C237.866 25.9393 238.197 25.6827 238.627 25.496C239.056 25.3 239.546 25.202 240.097 25.202C240.946 25.202 241.632 25.4167 242.155 25.846C242.677 26.2753 242.957 26.8633 242.995 27.61H241.721C241.693 27.2087 241.529 26.8867 241.231 26.644C240.941 26.4013 240.549 26.28 240.055 26.28C239.597 26.28 239.233 26.378 238.963 26.574C238.692 26.77 238.557 27.0267 238.557 27.344C238.557 27.596 238.636 27.806 238.795 27.974C238.963 28.1327 239.168 28.2633 239.411 28.366C239.663 28.4593 240.008 28.5667 240.447 28.688C240.997 28.8373 241.445 28.9867 241.791 29.136C242.136 29.276 242.43 29.4907 242.673 29.78C242.925 30.0693 243.055 30.4473 243.065 30.914C243.065 31.334 242.948 31.712 242.715 32.048C242.481 32.384 242.15 32.65 241.721 32.846C241.301 33.0327 240.815 33.126 240.265 33.126ZM255.596 28.87C255.596 29.1127 255.582 29.3693 255.554 29.64H249.422C249.468 30.396 249.725 30.9887 250.192 31.418C250.668 31.838 251.242 32.048 251.914 32.048C252.464 32.048 252.922 31.922 253.286 31.67C253.659 31.4087 253.92 31.0633 254.07 30.634H255.442C255.236 31.3713 254.826 31.9733 254.21 32.44C253.594 32.8973 252.828 33.126 251.914 33.126C251.186 33.126 250.532 32.9627 249.954 32.636C249.384 32.3093 248.936 31.8473 248.61 31.25C248.283 30.6433 248.12 29.9433 248.12 29.15C248.12 28.3567 248.278 27.6613 248.596 27.064C248.913 26.4667 249.356 26.0093 249.926 25.692C250.504 25.3653 251.167 25.202 251.914 25.202C252.642 25.202 253.286 25.3607 253.846 25.678C254.406 25.9953 254.835 26.434 255.134 26.994C255.442 27.5447 255.596 28.17 255.596 28.87ZM254.28 28.604C254.28 28.1187 254.172 27.7033 253.958 27.358C253.743 27.0033 253.449 26.7373 253.076 26.56C252.712 26.3733 252.306 26.28 251.858 26.28C251.214 26.28 250.663 26.4853 250.206 26.896C249.758 27.3067 249.501 27.876 249.436 28.604H254.28ZM261.015 25.188C261.949 25.188 262.705 25.4727 263.283 26.042C263.862 26.602 264.151 27.414 264.151 28.478V33H262.891V28.66C262.891 27.8947 262.7 27.3113 262.317 26.91C261.935 26.4993 261.412 26.294 260.749 26.294C260.077 26.294 259.541 26.504 259.139 26.924C258.747 27.344 258.551 27.9553 258.551 28.758V33H257.277V25.328H258.551V26.42C258.803 26.028 259.144 25.7247 259.573 25.51C260.012 25.2953 260.493 25.188 261.015 25.188ZM266.89 24.082C266.648 24.082 266.442 23.998 266.274 23.83C266.106 23.662 266.022 23.4567 266.022 23.214C266.022 22.9713 266.106 22.766 266.274 22.598C266.442 22.43 266.648 22.346 266.89 22.346C267.124 22.346 267.32 22.43 267.478 22.598C267.646 22.766 267.73 22.9713 267.73 23.214C267.73 23.4567 267.646 23.662 267.478 23.83C267.32 23.998 267.124 24.082 266.89 24.082ZM267.506 25.328V33H266.232V25.328H267.506ZM278.904 25.188C279.501 25.188 280.033 25.314 280.5 25.566C280.966 25.8087 281.335 26.1773 281.606 26.672C281.876 27.1667 282.012 27.7687 282.012 28.478V33H280.752V28.66C280.752 27.8947 280.56 27.3113 280.178 26.91C279.804 26.4993 279.296 26.294 278.652 26.294C277.989 26.294 277.462 26.5087 277.07 26.938C276.678 27.358 276.482 27.9693 276.482 28.772V33H275.222V28.66C275.222 27.8947 275.03 27.3113 274.648 26.91C274.274 26.4993 273.766 26.294 273.122 26.294C272.459 26.294 271.932 26.5087 271.54 26.938C271.148 27.358 270.952 27.9693 270.952 28.772V33H269.678V25.328H270.952V26.434C271.204 26.0327 271.54 25.7247 271.96 25.51C272.389 25.2953 272.86 25.188 273.374 25.188C274.018 25.188 274.587 25.3327 275.082 25.622C275.576 25.9113 275.945 26.336 276.188 26.896C276.402 26.3547 276.757 25.9347 277.252 25.636C277.746 25.3373 278.297 25.188 278.904 25.188ZM48.8444 44.082C48.6017 44.082 48.3964 43.998 48.2284 43.83C48.0604 43.662 47.9764 43.4567 47.9764 43.214C47.9764 42.9713 48.0604 42.766 48.2284 42.598C48.3964 42.43 48.6017 42.346 48.8444 42.346C49.0777 42.346 49.2737 42.43 49.4324 42.598C49.6004 42.766 49.6844 42.9713 49.6844 43.214C49.6844 43.4567 49.6004 43.662 49.4324 43.83C49.2737 43.998 49.0777 44.082 48.8444 44.082ZM49.4604 45.328V53H48.1864V45.328H49.4604ZM55.3697 45.188C56.303 45.188 57.059 45.4727 57.6377 46.042C58.2164 46.602 58.5057 47.414 58.5057 48.478V53H57.2457V48.66C57.2457 47.8947 57.0544 47.3113 56.6717 46.91C56.289 46.4993 55.7664 46.294 55.1037 46.294C54.4317 46.294 53.895 46.504 53.4937 46.924C53.1017 47.344 52.9057 47.9553 52.9057 48.758V53H51.6317V45.328H52.9057V46.42C53.1577 46.028 53.4984 45.7247 53.9277 45.51C54.3664 45.2953 54.847 45.188 55.3697 45.188ZM71.3192 48.87C71.3192 49.1127 71.3052 49.3693 71.2772 49.64H65.1452C65.1919 50.396 65.4485 50.9887 65.9152 51.418C66.3912 51.838 66.9652 52.048 67.6372 52.048C68.1879 52.048 68.6452 51.922 69.0092 51.67C69.3825 51.4087 69.6439 51.0633 69.7932 50.634H71.1652C70.9599 51.3713 70.5492 51.9733 69.9332 52.44C69.3172 52.8973 68.5519 53.126 67.6372 53.126C66.9092 53.126 66.2559 52.9627 65.6772 52.636C65.1079 52.3093 64.6599 51.8473 64.3332 51.25C64.0065 50.6433 63.8432 49.9433 63.8432 49.15C63.8432 48.3567 64.0019 47.6613 64.3192 47.064C64.6365 46.4667 65.0799 46.0093 65.6492 45.692C66.2279 45.3653 66.8905 45.202 67.6372 45.202C68.3652 45.202 69.0092 45.3607 69.5692 45.678C70.1292 45.9953 70.5585 46.434 70.8572 46.994C71.1652 47.5447 71.3192 48.17 71.3192 48.87ZM70.0032 48.604C70.0032 48.1187 69.8959 47.7033 69.6812 47.358C69.4665 47.0033 69.1725 46.7373 68.7992 46.56C68.4352 46.3733 68.0292 46.28 67.5812 46.28C66.9372 46.28 66.3865 46.4853 65.9292 46.896C65.4812 47.3067 65.2245 47.876 65.1592 48.604H70.0032ZM74.2749 46.574C74.4989 46.1353 74.8162 45.7947 75.2269 45.552C75.6469 45.3093 76.1555 45.188 76.7529 45.188V46.504H76.4169C74.9889 46.504 74.2749 47.2787 74.2749 48.828V53H73.0009V45.328H74.2749V46.574ZM81.5695 53.126C80.8508 53.126 80.1975 52.9627 79.6095 52.636C79.0308 52.3093 78.5735 51.8473 78.2375 51.25C77.9108 50.6433 77.7475 49.9433 77.7475 49.15C77.7475 48.366 77.9155 47.6753 78.2515 47.078C78.5968 46.4713 79.0635 46.0093 79.6515 45.692C80.2395 45.3653 80.8975 45.202 81.6255 45.202C82.3535 45.202 83.0115 45.3653 83.5995 45.692C84.1875 46.0093 84.6495 46.4667 84.9855 47.064C85.3308 47.6613 85.5035 48.3567 85.5035 49.15C85.5035 49.9433 85.3262 50.6433 84.9715 51.25C84.6262 51.8473 84.1548 52.3093 83.5575 52.636C82.9602 52.9627 82.2975 53.126 81.5695 53.126ZM81.5695 52.006C82.0268 52.006 82.4562 51.8987 82.8575 51.684C83.2588 51.4693 83.5808 51.1473 83.8235 50.718C84.0755 50.2887 84.2015 49.766 84.2015 49.15C84.2015 48.534 84.0802 48.0113 83.8375 47.582C83.5948 47.1527 83.2775 46.8353 82.8855 46.63C82.4935 46.4153 82.0688 46.308 81.6115 46.308C81.1448 46.308 80.7155 46.4153 80.3235 46.63C79.9408 46.8353 79.6328 47.1527 79.3995 47.582C79.1662 48.0113 79.0495 48.534 79.0495 49.15C79.0495 49.7753 79.1615 50.3027 79.3855 50.732C79.6188 51.1613 79.9268 51.4833 80.3095 51.698C80.6922 51.9033 81.1122 52.006 81.5695 52.006ZM89.8946 53.126C89.3066 53.126 88.7793 53.028 88.3126 52.832C87.8459 52.6267 87.4773 52.3467 87.2066 51.992C86.9359 51.628 86.7866 51.2127 86.7586 50.746H88.0746C88.1119 51.1287 88.2893 51.4413 88.6066 51.684C88.9333 51.9267 89.3579 52.048 89.8806 52.048C90.3659 52.048 90.7486 51.9407 91.0286 51.726C91.3086 51.5113 91.4486 51.2407 91.4486 50.914C91.4486 50.578 91.2993 50.3307 91.0006 50.172C90.7019 50.004 90.2399 49.8407 89.6146 49.682C89.0453 49.5327 88.5786 49.3833 88.2146 49.234C87.8599 49.0753 87.5519 48.8467 87.2906 48.548C87.0386 48.24 86.9126 47.8387 86.9126 47.344C86.9126 46.952 87.0293 46.5927 87.2626 46.266C87.4959 45.9393 87.8273 45.6827 88.2566 45.496C88.6859 45.3 89.1759 45.202 89.7266 45.202C90.5759 45.202 91.2619 45.4167 91.7846 45.846C92.3073 46.2753 92.5873 46.8633 92.6246 47.61H91.3506C91.3226 47.2087 91.1593 46.8867 90.8606 46.644C90.5713 46.4013 90.1793 46.28 89.6846 46.28C89.2273 46.28 88.8633 46.378 88.5926 46.574C88.3219 46.77 88.1866 47.0267 88.1866 47.344C88.1866 47.596 88.2659 47.806 88.4246 47.974C88.5926 48.1327 88.7979 48.2633 89.0406 48.366C89.2926 48.4593 89.6379 48.5667 90.0766 48.688C90.6273 48.8373 91.0753 48.9867 91.4206 49.136C91.7659 49.276 92.0599 49.4907 92.3026 49.78C92.5546 50.0693 92.6853 50.4473 92.6946 50.914C92.6946 51.334 92.5779 51.712 92.3446 52.048C92.1113 52.384 91.7799 52.65 91.3506 52.846C90.9306 53.0327 90.4453 53.126 89.8946 53.126ZM105.225 48.87C105.225 49.1127 105.211 49.3693 105.183 49.64H99.0515C99.0981 50.396 99.3548 50.9887 99.8215 51.418C100.297 51.838 100.871 52.048 101.543 52.048C102.094 52.048 102.551 51.922 102.915 51.67C103.289 51.4087 103.55 51.0633 103.699 50.634H105.071C104.866 51.3713 104.455 51.9733 103.839 52.44C103.223 52.8973 102.458 53.126 101.543 53.126C100.815 53.126 100.162 52.9627 99.5835 52.636C99.0141 52.3093 98.5661 51.8473 98.2395 51.25C97.9128 50.6433 97.7495 49.9433 97.7495 49.15C97.7495 48.3567 97.9081 47.6613 98.2255 47.064C98.5428 46.4667 98.9861 46.0093 99.5555 45.692C100.134 45.3653 100.797 45.202 101.543 45.202C102.271 45.202 102.915 45.3607 103.475 45.678C104.035 45.9953 104.465 46.434 104.763 46.994C105.071 47.5447 105.225 48.17 105.225 48.87ZM103.909 48.604C103.909 48.1187 103.802 47.7033 103.587 47.358C103.373 47.0033 103.079 46.7373 102.705 46.56C102.341 46.3733 101.935 46.28 101.487 46.28C100.843 46.28 100.293 46.4853 99.8355 46.896C99.3875 47.3067 99.1308 47.876 99.0655 48.604H103.909ZM108.181 42.64V53H106.907V42.64H108.181ZM117.352 48.87C117.352 49.1127 117.338 49.3693 117.31 49.64H111.178C111.225 50.396 111.482 50.9887 111.948 51.418C112.424 51.838 112.998 52.048 113.67 52.048C114.221 52.048 114.678 51.922 115.042 51.67C115.416 51.4087 115.677 51.0633 115.826 50.634H117.198C116.993 51.3713 116.582 51.9733 115.966 52.44C115.35 52.8973 114.585 53.126 113.67 53.126C112.942 53.126 112.289 52.9627 111.71 52.636C111.141 52.3093 110.693 51.8473 110.366 51.25C110.04 50.6433 109.876 49.9433 109.876 49.15C109.876 48.3567 110.035 47.6613 110.352 47.064C110.67 46.4667 111.113 46.0093 111.682 45.692C112.261 45.3653 112.924 45.202 113.67 45.202C114.398 45.202 115.042 45.3607 115.602 45.678C116.162 45.9953 116.592 46.434 116.89 46.994C117.198 47.5447 117.352 48.17 117.352 48.87ZM116.036 48.604C116.036 48.1187 115.929 47.7033 115.714 47.358C115.5 47.0033 115.206 46.7373 114.832 46.56C114.468 46.3733 114.062 46.28 113.614 46.28C112.97 46.28 112.42 46.4853 111.962 46.896C111.514 47.3067 111.258 47.876 111.192 48.604H116.036ZM128.26 45.188C128.857 45.188 129.389 45.314 129.856 45.566C130.323 45.8087 130.691 46.1773 130.962 46.672C131.233 47.1667 131.368 47.7687 131.368 48.478V53H130.108V48.66C130.108 47.8947 129.917 47.3113 129.534 46.91C129.161 46.4993 128.652 46.294 128.008 46.294C127.345 46.294 126.818 46.5087 126.426 46.938C126.034 47.358 125.838 47.9693 125.838 48.772V53H124.578V48.66C124.578 47.8947 124.387 47.3113 124.004 46.91C123.631 46.4993 123.122 46.294 122.478 46.294C121.815 46.294 121.288 46.5087 120.896 46.938C120.504 47.358 120.308 47.9693 120.308 48.772V53H119.034V45.328H120.308V46.434C120.56 46.0327 120.896 45.7247 121.316 45.51C121.745 45.2953 122.217 45.188 122.73 45.188C123.374 45.188 123.943 45.3327 124.438 45.622C124.933 45.9113 125.301 46.336 125.544 46.896C125.759 46.3547 126.113 45.9347 126.608 45.636C127.103 45.3373 127.653 45.188 128.26 45.188ZM140.458 48.87C140.458 49.1127 140.444 49.3693 140.416 49.64H134.284C134.331 50.396 134.587 50.9887 135.054 51.418C135.53 51.838 136.104 52.048 136.776 52.048C137.327 52.048 137.784 51.922 138.148 51.67C138.521 51.4087 138.783 51.0633 138.932 50.634H140.304C140.099 51.3713 139.688 51.9733 139.072 52.44C138.456 52.8973 137.691 53.126 136.776 53.126C136.048 53.126 135.395 52.9627 134.816 52.636C134.247 52.3093 133.799 51.8473 133.472 51.25C133.145 50.6433 132.982 49.9433 132.982 49.15C132.982 48.3567 133.141 47.6613 133.458 47.064C133.775 46.4667 134.219 46.0093 134.788 45.692C135.367 45.3653 136.029 45.202 136.776 45.202C137.504 45.202 138.148 45.3607 138.708 45.678C139.268 45.9953 139.697 46.434 139.996 46.994C140.304 47.5447 140.458 48.17 140.458 48.87ZM139.142 48.604C139.142 48.1187 139.035 47.7033 138.82 47.358C138.605 47.0033 138.311 46.7373 137.938 46.56C137.574 46.3733 137.168 46.28 136.72 46.28C136.076 46.28 135.525 46.4853 135.068 46.896C134.62 47.3067 134.363 47.876 134.298 48.604H139.142ZM145.878 45.188C146.811 45.188 147.567 45.4727 148.146 46.042C148.724 46.602 149.014 47.414 149.014 48.478V53H147.754V48.66C147.754 47.8947 147.562 47.3113 147.18 46.91C146.797 46.4993 146.274 46.294 145.612 46.294C144.94 46.294 144.403 46.504 144.002 46.924C143.61 47.344 143.414 47.9553 143.414 48.758V53H142.14V45.328H143.414V46.42C143.666 46.028 144.006 45.7247 144.436 45.51C144.874 45.2953 145.355 45.188 145.878 45.188ZM152.649 46.378V50.9C152.649 51.2733 152.728 51.5393 152.887 51.698C153.045 51.8473 153.321 51.922 153.713 51.922H154.651V53H153.503C152.793 53 152.261 52.8367 151.907 52.51C151.552 52.1833 151.375 51.6467 151.375 50.9V46.378H150.381V45.328H151.375V43.396H152.649V45.328H154.651V46.378H152.649ZM162.998 45.328V53H161.724V51.866C161.482 52.258 161.141 52.566 160.702 52.79C160.273 53.0047 159.797 53.112 159.274 53.112C158.677 53.112 158.14 52.9907 157.664 52.748C157.188 52.496 156.81 52.1227 156.53 51.628C156.26 51.1333 156.124 50.5313 156.124 49.822V45.328H157.384V49.654C157.384 50.41 157.576 50.9933 157.958 51.404C158.341 51.8053 158.864 52.006 159.526 52.006C160.208 52.006 160.744 51.796 161.136 51.376C161.528 50.956 161.724 50.3447 161.724 49.542V45.328H162.998ZM174.375 45.188C174.973 45.188 175.505 45.314 175.971 45.566C176.438 45.8087 176.807 46.1773 177.077 46.672C177.348 47.1667 177.483 47.7687 177.483 48.478V53H176.223V48.66C176.223 47.8947 176.032 47.3113 175.649 46.91C175.276 46.4993 174.767 46.294 174.123 46.294C173.461 46.294 172.933 46.5087 172.541 46.938C172.149 47.358 171.953 47.9693 171.953 48.772V53H170.693V48.66C170.693 47.8947 170.502 47.3113 170.119 46.91C169.746 46.4993 169.237 46.294 168.593 46.294C167.931 46.294 167.403 46.5087 167.011 46.938C166.619 47.358 166.423 47.9693 166.423 48.772V53H165.149V45.328H166.423V46.434C166.675 46.0327 167.011 45.7247 167.431 45.51C167.861 45.2953 168.332 45.188 168.845 45.188C169.489 45.188 170.059 45.3327 170.553 45.622C171.048 45.9113 171.417 46.336 171.659 46.896C171.874 46.3547 172.229 45.9347 172.723 45.636C173.218 45.3373 173.769 45.188 174.375 45.188ZM184.86 46.378V50.9C184.86 51.2733 184.939 51.5393 185.098 51.698C185.256 51.8473 185.532 51.922 185.924 51.922H186.862V53H185.714C185.004 53 184.472 52.8367 184.118 52.51C183.763 52.1833 183.586 51.6467 183.586 50.9V46.378H182.592V45.328H183.586V43.396H184.86V45.328H186.862V46.378H184.86ZM189.679 46.574C189.903 46.1353 190.22 45.7947 190.631 45.552C191.051 45.3093 191.56 45.188 192.157 45.188V46.504H191.821C190.393 46.504 189.679 47.2787 189.679 48.828V53H188.405V45.328H189.679V46.574ZM194.286 44.082C194.043 44.082 193.838 43.998 193.67 43.83C193.502 43.662 193.418 43.4567 193.418 43.214C193.418 42.9713 193.502 42.766 193.67 42.598C193.838 42.43 194.043 42.346 194.286 42.346C194.519 42.346 194.715 42.43 194.874 42.598C195.042 42.766 195.126 42.9713 195.126 43.214C195.126 43.4567 195.042 43.662 194.874 43.83C194.715 43.998 194.519 44.082 194.286 44.082ZM194.902 45.328V53H193.628V45.328H194.902ZM199.789 53.126C199.201 53.126 198.674 53.028 198.207 52.832C197.74 52.6267 197.372 52.3467 197.101 51.992C196.83 51.628 196.681 51.2127 196.653 50.746H197.969C198.006 51.1287 198.184 51.4413 198.501 51.684C198.828 51.9267 199.252 52.048 199.775 52.048C200.26 52.048 200.643 51.9407 200.923 51.726C201.203 51.5113 201.343 51.2407 201.343 50.914C201.343 50.578 201.194 50.3307 200.895 50.172C200.596 50.004 200.134 49.8407 199.509 49.682C198.94 49.5327 198.473 49.3833 198.109 49.234C197.754 49.0753 197.446 48.8467 197.185 48.548C196.933 48.24 196.807 47.8387 196.807 47.344C196.807 46.952 196.924 46.5927 197.157 46.266C197.39 45.9393 197.722 45.6827 198.151 45.496C198.58 45.3 199.07 45.202 199.621 45.202C200.47 45.202 201.156 45.4167 201.679 45.846C202.202 46.2753 202.482 46.8633 202.519 47.61H201.245C201.217 47.2087 201.054 46.8867 200.755 46.644C200.466 46.4013 200.074 46.28 199.579 46.28C199.122 46.28 198.758 46.378 198.487 46.574C198.216 46.77 198.081 47.0267 198.081 47.344C198.081 47.596 198.16 47.806 198.319 47.974C198.487 48.1327 198.692 48.2633 198.935 48.366C199.187 48.4593 199.532 48.5667 199.971 48.688C200.522 48.8373 200.97 48.9867 201.315 49.136C201.66 49.276 201.954 49.4907 202.197 49.78C202.449 50.0693 202.58 50.4473 202.589 50.914C202.589 51.334 202.472 51.712 202.239 52.048C202.006 52.384 201.674 52.65 201.245 52.846C200.825 53.0327 200.34 53.126 199.789 53.126ZM205.942 46.378V50.9C205.942 51.2733 206.021 51.5393 206.18 51.698C206.338 51.8473 206.614 51.922 207.006 51.922H207.944V53H206.796C206.086 53 205.554 52.8367 205.2 52.51C204.845 52.1833 204.668 51.6467 204.668 50.9V46.378H203.674V45.328H204.668V43.396H205.942V45.328H207.944V46.378H205.942ZM210.145 44.082C209.903 44.082 209.697 43.998 209.529 43.83C209.361 43.662 209.277 43.4567 209.277 43.214C209.277 42.9713 209.361 42.766 209.529 42.598C209.697 42.43 209.903 42.346 210.145 42.346C210.379 42.346 210.575 42.43 210.733 42.598C210.901 42.766 210.985 42.9713 210.985 43.214C210.985 43.4567 210.901 43.662 210.733 43.83C210.575 43.998 210.379 44.082 210.145 44.082ZM210.761 45.328V53H209.487V45.328H210.761ZM212.456 49.136C212.456 48.352 212.615 47.666 212.932 47.078C213.25 46.4807 213.684 46.0187 214.234 45.692C214.794 45.3653 215.42 45.202 216.11 45.202C216.773 45.202 217.352 45.3513 217.846 45.65C218.35 45.9393 218.719 46.2987 218.952 46.728V45.328H220.24V56.64H218.952V51.586C218.71 52.0153 218.336 52.3793 217.832 52.678C217.328 52.9767 216.74 53.126 216.068 53.126C215.396 53.126 214.785 52.958 214.234 52.622C213.684 52.286 213.25 51.8147 212.932 51.208C212.615 50.6013 212.456 49.9107 212.456 49.136ZM218.952 49.15C218.952 48.5713 218.836 48.0673 218.602 47.638C218.369 47.2087 218.052 46.882 217.65 46.658C217.258 46.4247 216.824 46.308 216.348 46.308C215.872 46.308 215.438 46.42 215.046 46.644C214.654 46.868 214.342 47.1947 214.108 47.624C213.875 48.0533 213.758 48.5573 213.758 49.136C213.758 49.724 213.875 50.2373 214.108 50.676C214.342 51.1053 214.654 51.4367 215.046 51.67C215.438 51.894 215.872 52.006 216.348 52.006C216.824 52.006 217.258 51.894 217.65 51.67C218.052 51.4367 218.369 51.1053 218.602 50.676C218.836 50.2373 218.952 49.7287 218.952 49.15ZM229.197 45.328V53H227.923V51.866C227.681 52.258 227.34 52.566 226.901 52.79C226.472 53.0047 225.996 53.112 225.473 53.112C224.876 53.112 224.339 52.9907 223.863 52.748C223.387 52.496 223.009 52.1227 222.729 51.628C222.459 51.1333 222.323 50.5313 222.323 49.822V45.328H223.583V49.654C223.583 50.41 223.775 50.9933 224.157 51.404C224.54 51.8053 225.063 52.006 225.725 52.006C226.407 52.006 226.943 51.796 227.335 51.376C227.727 50.956 227.923 50.3447 227.923 49.542V45.328H229.197ZM238.349 48.87C238.349 49.1127 238.335 49.3693 238.307 49.64H232.175C232.221 50.396 232.478 50.9887 232.945 51.418C233.421 51.838 233.995 52.048 234.667 52.048C235.217 52.048 235.675 51.922 236.039 51.67C236.412 51.4087 236.673 51.0633 236.823 50.634H238.195C237.989 51.3713 237.579 51.9733 236.963 52.44C236.347 52.8973 235.581 53.126 234.667 53.126C233.939 53.126 233.285 52.9627 232.707 52.636C232.137 52.3093 231.689 51.8473 231.363 51.25C231.036 50.6433 230.873 49.9433 230.873 49.15C230.873 48.3567 231.031 47.6613 231.349 47.064C231.666 46.4667 232.109 46.0093 232.679 45.692C233.257 45.3653 233.92 45.202 234.667 45.202C235.395 45.202 236.039 45.3607 236.599 45.678C237.159 45.9953 237.588 46.434 237.887 46.994C238.195 47.5447 238.349 48.17 238.349 48.87ZM237.033 48.604C237.033 48.1187 236.925 47.7033 236.711 47.358C236.496 47.0033 236.202 46.7373 235.829 46.56C235.465 46.3733 235.059 46.28 234.611 46.28C233.967 46.28 233.416 46.4853 232.959 46.896C232.511 47.3067 232.254 47.876 232.189 48.604H237.033ZM240.436 53.084C240.193 53.084 239.988 53 239.82 52.832C239.652 52.664 239.568 52.4587 239.568 52.216C239.568 51.9733 239.652 51.768 239.82 51.6C239.988 51.432 240.193 51.348 240.436 51.348C240.669 51.348 240.865 51.432 241.024 51.6C241.192 51.768 241.276 51.9733 241.276 52.216C241.276 52.4587 241.192 52.664 241.024 52.832C240.865 53 240.669 53.084 240.436 53.084Z" fill="#575445"/>
</svg>
